<svg xmlns="http://www.w3.org/2000/svg" xmlns:xlink="http://www.w3.org/1999/xlink" width="105.954" height="94.702" viewBox="0 0 105.954 94.702">
  <defs>
    <clipPath id="clip-path">
      <rect id="Rectangle_73" data-name="Rectangle 73" width="105.954" height="94.702" fill="#fff"/>
    </clipPath>
  </defs>
  <g id="Group_28" data-name="Group 28" transform="translate(0 0)">
    <g id="Group_27" data-name="Group 27" transform="translate(0 0)" clip-path="url(#clip-path)">
      <path id="Path_17" data-name="Path 17" d="M22.533,34.451c0,1.3.579,1.666,2.227,1.666a12.076,12.076,0,0,0,2.507-.228V32.961H24.2c-1.139,0-1.666.384-1.666,1.49" transform="translate(16.645 24.348)" fill="#fff"/>
      <path id="Path_18" data-name="Path 18" d="M28.017,34.217c0,2.964.28,3.7,2.7,3.7a22.467,22.467,0,0,0,2.4-.122V30.5H30.594c-2.3,0-2.577.718-2.577,3.717" transform="translate(20.696 22.53)" fill="#fff"/>
      <path id="Path_19" data-name="Path 19" d="M36.276,30.5c-2.121,0-2.507.631-2.542,3.191h5C38.7,31.1,38.293,30.5,36.276,30.5" transform="translate(24.919 22.53)" fill="#fff"/>
      <path id="Path_20" data-name="Path 20" d="M105.953,2.226l-28.5,8.591A47.383,47.383,0,1,0,90.962,28.96ZM25.926,30.872a22.891,22.891,0,0,1,2.42.1V27.559c0-.141.07-.23.21-.23h.824a.2.2,0,0,1,.228.23V39.992c0,.176-.07.245-.245.263a19.87,19.87,0,0,1-3.561.28c-3.244,0-3.858-.946-3.858-4.841,0-3.876.614-4.821,3.982-4.821m5.034,18.441c0,.156-.071.228-.23.228H23.822v5.014H30.1a.2.2,0,0,1,.226.228v.737a.2.2,0,0,1-.226.228H23.822v5.506a.2.2,0,0,1-.23.228H22.7a.2.2,0,0,1-.228-.228V48.628a.232.232,0,0,1,.263-.263h8c.158,0,.23.07.23.21Zm1.222-9.1V32.731c0-1.841,1.772-1.859,2.544-1.859a9.617,9.617,0,0,1,1.824.158c.141.052.21.1.21.245v.508c0,.158-.089.228-.228.21H35.005c-1.035,0-1.542.158-1.542,1v7.224c0,.158-.071.23-.23.23H32.41a.205.205,0,0,1-.228-.23M37.2,52.82c0,.158-.089.228-.228.21H35.444c-1.035,0-1.542.158-1.542,1v7.224c0,.158-.071.228-.23.228h-.824a.2.2,0,0,1-.228-.228V53.766c0-1.841,1.772-1.857,2.544-1.857a9.77,9.77,0,0,1,1.824.156c.141.054.21.106.21.245Zm7.975,7.944a.4.4,0,0,1-.315.456,14.859,14.859,0,0,1-3.735.351c-2.3,0-3.21-.579-3.21-2.771,0-1.928.982-2.6,2.928-2.6h3.069V54.82c0-1.316-.876-1.789-2.594-1.789H38.949c-.176,0-.228-.052-.228-.228v-.492c0-.176.052-.21.21-.245a15.876,15.876,0,0,1,2.385-.156c2.419,0,3.856.683,3.856,2.716ZM45.6,35.887c0,.3-.054.44-.544.44H39.317c.052,2.436.492,3.084,2.542,3.084h2.754a.2.2,0,0,1,.228.23v.542a.218.218,0,0,1-.21.23c-.824.087-1.876.122-2.771.122-3.173,0-3.822-.965-3.822-4.841s.649-4.821,3.822-4.821c3,0,3.7.894,3.736,4.507Zm2.766-8.417a.722.722,0,0,1,.807.807.74.74,0,0,1-.807.842.758.758,0,0,1-.842-.842.74.74,0,0,1,.842-.807m.631,3.719v9.029a.2.2,0,0,1-.228.23h-.824c-.158,0-.228-.071-.228-.23V31.189a.2.2,0,0,1,.228-.23h.824a.211.211,0,0,1,.228.23m6.085,29.575c0,3.349-.7,4.244-3.893,4.244-.65,0-1.527-.035-2.368-.123a.223.223,0,0,1-.21-.245V64.1a.187.187,0,0,1,.21-.21h2.368c2.156,0,2.631-.542,2.631-2.314v-.123a17.785,17.785,0,0,1-2.4.123c-3.368,0-3.982-.93-3.982-4.806,0-3.91.633-4.856,3.858-4.856a26.479,26.479,0,0,1,3.561.226c.158.019.228.089.228.264Zm9.851-3.841c0,.3-.052.438-.544.438H58.652c.052,2.438.492,3.086,2.542,3.086h2.754a.2.2,0,0,1,.228.228v.544a.215.215,0,0,1-.21.228c-.824.089-1.876.123-2.771.123-3.173,0-3.822-.965-3.822-4.841s.649-4.821,3.822-4.821c3,0,3.7.894,3.736,4.5Zm9.765,4.331c0,.158-.106.228-.263.228h-.789c-.158,0-.228-.07-.228-.228V55.906c0-2.718-.666-2.876-2.4-2.876H68.294v8.224c0,.158-.071.228-.21.228H67.26c-.158,0-.228-.07-.228-.228V52.38c0-.174.07-.209.228-.226a20.043,20.043,0,0,1,3.542-.245c2.893,0,3.893.367,3.893,4Z" transform="translate(0 -0.001)" fill="#fff"/>
      <path id="Path_21" data-name="Path 21" d="M15.936,25.818a19.432,19.432,0,0,0,2.542-.176V18.4h-2.42c-2.419,0-2.7.718-2.7,3.683,0,3,.282,3.735,2.578,3.735" transform="translate(9.868 13.592)" fill="#fff"/>
      <path id="Path_22" data-name="Path 22" d="M25.156,18.4c-2.121,0-2.507.631-2.542,3.191h5C27.576,19,27.173,18.4,25.156,18.4" transform="translate(16.705 13.592)" fill="#fff"/>
    </g>
  </g>
</svg>
